<svg width="91" height="15" viewBox="0 0 91 15" fill="none" xmlns="http://www.w3.org/2000/svg">
<path d="M12.5852 -4.48227e-05V14.5454H9.28977L4.03409 6.90336H3.94886V14.5454H0V-4.48227e-05H3.35227L8.52273 7.61359H8.63636V-4.48227e-05H12.5852ZM19.4815 14.7727C18.4967 14.7727 17.6326 14.5383 16.8892 14.0696C16.1506 13.6008 15.5729 12.945 15.1562 12.1022C14.7443 11.2594 14.5384 10.2746 14.5384 9.14768C14.5384 8.01132 14.7443 7.01937 15.1562 6.17183C15.5729 5.32429 16.1506 4.66615 16.8892 4.1974C17.6326 3.72865 18.4967 3.49427 19.4815 3.49427C20.4664 3.49427 21.3281 3.72865 22.0668 4.1974C22.8101 4.66615 23.3878 5.32429 23.7997 6.17183C24.2164 7.01937 24.4247 8.01132 24.4247 9.14768C24.4247 10.2746 24.2164 11.2594 23.7997 12.1022C23.3878 12.945 22.8101 13.6008 22.0668 14.0696C21.3281 14.5383 20.4664 14.7727 19.4815 14.7727ZM19.4815 13.267C20.2296 13.267 20.8452 13.0752 21.3281 12.6917C21.8111 12.3082 22.1686 11.8039 22.4006 11.1789C22.6326 10.5539 22.7486 9.87685 22.7486 9.14768C22.7486 8.41852 22.6326 7.73907 22.4006 7.10933C22.1686 6.4796 21.8111 5.9706 21.3281 5.58234C20.8452 5.19408 20.2296 4.99996 19.4815 4.99996C18.7334 4.99996 18.1179 5.19408 17.6349 5.58234C17.152 5.9706 16.7945 6.4796 16.5625 7.10933C16.3305 7.73907 16.2145 8.41852 16.2145 9.14768C16.2145 9.87685 16.3305 10.5539 16.5625 11.1789C16.7945 11.8039 17.152 12.3082 17.6349 12.6917C18.1179 13.0752 18.7334 13.267 19.4815 13.267ZM34.7106 6.0795L33.2049 6.50564C33.1102 6.25469 32.9705 6.01085 32.7859 5.7741C32.6059 5.53263 32.3597 5.33376 32.0472 5.17751C31.7347 5.02126 31.3346 4.94314 30.8469 4.94314C30.1793 4.94314 29.623 5.09702 29.1779 5.40479C28.7376 5.70782 28.5174 6.09371 28.5174 6.56246C28.5174 6.97912 28.6689 7.30819 28.9719 7.54967C29.275 7.79115 29.7485 7.99238 30.3924 8.15336L32.0117 8.55109C32.9871 8.78783 33.7139 9.15005 34.1921 9.63774C34.6703 10.1207 34.9094 10.7433 34.9094 11.5056C34.9094 12.1306 34.7295 12.6893 34.3697 13.1818C34.0146 13.6742 33.5174 14.0625 32.8782 14.3465C32.239 14.6306 31.4956 14.7727 30.6481 14.7727C29.5354 14.7727 28.6145 14.5312 27.8853 14.0483C27.1561 13.5653 26.6945 12.8598 26.5004 11.9318L28.0913 11.534C28.2428 12.1212 28.5292 12.5615 28.9506 12.8551C29.3768 13.1486 29.9331 13.2954 30.6197 13.2954C31.4009 13.2954 32.0212 13.1297 32.4805 12.7983C32.9445 12.4621 33.1765 12.0596 33.1765 11.5909C33.1765 11.2121 33.0439 10.8948 32.7788 10.6392C32.5136 10.3787 32.1064 10.1846 31.5572 10.0568L29.739 9.63064C28.7399 9.3939 28.006 9.02694 27.5373 8.52979C27.0733 8.02789 26.8413 7.40052 26.8413 6.64768C26.8413 6.03215 27.0141 5.48764 27.3597 5.01416C27.7101 4.54068 28.186 4.16899 28.7873 3.8991C29.3933 3.62922 30.0799 3.49427 30.8469 3.49427C31.9265 3.49427 32.774 3.73102 33.3896 4.2045C34.0098 4.67799 34.4502 5.30299 34.7106 6.0795ZM42.1768 3.63632V5.05677H36.5234V3.63632H42.1768ZM38.1712 1.02268H39.8473V11.4204C39.8473 11.8939 39.916 12.249 40.0533 12.4858C40.1953 12.7178 40.3752 12.874 40.593 12.9545C40.8156 13.0303 41.05 13.0681 41.2962 13.0681C41.4808 13.0681 41.6323 13.0587 41.7507 13.0397C41.8691 13.0161 41.9638 12.9971 42.0348 12.9829L42.3757 14.4886C42.2621 14.5312 42.1035 14.5738 41.8999 14.6164C41.6963 14.6638 41.4382 14.6875 41.1257 14.6875C40.6522 14.6875 40.1882 14.5857 39.7337 14.3821C39.2839 14.1785 38.9098 13.8683 38.6115 13.4517C38.3179 13.035 38.1712 12.5094 38.1712 11.875V1.02268ZM44.6982 14.5454V3.63632H46.3175V5.28405H46.4311C46.63 4.74427 46.9898 4.3063 47.5107 3.97013C48.0315 3.63395 48.6186 3.46586 49.272 3.46586C49.3951 3.46586 49.549 3.46823 49.7337 3.47297C49.9183 3.4777 50.058 3.4848 50.1527 3.49427V5.19882C50.0959 5.18461 49.9657 5.16331 49.7621 5.1349C49.5632 5.10175 49.3525 5.08518 49.13 5.08518C48.5997 5.08518 48.1262 5.19645 47.7095 5.41899C47.2976 5.63679 46.9709 5.93982 46.7294 6.32808C46.4927 6.7116 46.3743 7.14958 46.3743 7.642V14.5454H44.6982ZM56.2393 14.7727C55.2545 14.7727 54.3904 14.5383 53.647 14.0696C52.9084 13.6008 52.3307 12.945 51.9141 12.1022C51.5021 11.2594 51.2962 10.2746 51.2962 9.14768C51.2962 8.01132 51.5021 7.01937 51.9141 6.17183C52.3307 5.32429 52.9084 4.66615 53.647 4.1974C54.3904 3.72865 55.2545 3.49427 56.2393 3.49427C57.2242 3.49427 58.0859 3.72865 58.8246 4.1974C59.5679 4.66615 60.1456 5.32429 60.5575 6.17183C60.9742 7.01937 61.1825 8.01132 61.1825 9.14768C61.1825 10.2746 60.9742 11.2594 60.5575 12.1022C60.1456 12.945 59.5679 13.6008 58.8246 14.0696C58.0859 14.5383 57.2242 14.7727 56.2393 14.7727ZM56.2393 13.267C56.9875 13.267 57.603 13.0752 58.0859 12.6917C58.5689 12.3082 58.9264 11.8039 59.1584 11.1789C59.3904 10.5539 59.5064 9.87685 59.5064 9.14768C59.5064 8.41852 59.3904 7.73907 59.1584 7.10933C58.9264 6.4796 58.5689 5.9706 58.0859 5.58234C57.603 5.19408 56.9875 4.99996 56.2393 4.99996C55.4912 4.99996 54.8757 5.19408 54.3928 5.58234C53.9098 5.9706 53.5523 6.4796 53.3203 7.10933C53.0883 7.73907 52.9723 8.41852 52.9723 9.14768C52.9723 9.87685 53.0883 10.5539 53.3203 11.1789C53.5523 11.8039 53.9098 12.3082 54.3928 12.6917C54.8757 13.0752 55.4912 13.267 56.2393 13.267ZM63.7411 14.5454V3.63632H65.3604V5.34086H65.5025C65.7298 4.75848 66.0967 4.3063 66.6033 3.98433C67.11 3.65763 67.7184 3.49427 68.4286 3.49427C69.1483 3.49427 69.7473 3.65763 70.2255 3.98433C70.7085 4.3063 71.0849 4.75848 71.3548 5.34086H71.4684C71.7478 4.77742 72.1668 4.32997 72.7255 3.99854C73.2842 3.66236 73.9542 3.49427 74.7354 3.49427C75.7108 3.49427 76.5086 3.79967 77.1289 4.41047C77.7492 5.01653 78.0593 5.96113 78.0593 7.24427V14.5454H76.3832V7.24427C76.3832 6.43935 76.163 5.86407 75.7227 5.51842C75.2823 5.17278 74.7638 4.99996 74.1673 4.99996C73.4002 4.99996 72.806 5.23196 72.3846 5.69598C71.9632 6.15526 71.7525 6.73764 71.7525 7.44314V14.5454H70.0479V7.07382C70.0479 6.45355 69.8467 5.95403 69.4442 5.57524C69.0418 5.19172 68.5233 4.99996 67.8888 4.99996C67.4532 4.99996 67.046 5.11596 66.6673 5.34797C66.2932 5.57997 65.9902 5.90194 65.7582 6.31388C65.5309 6.72107 65.4173 7.19219 65.4173 7.72723V14.5454H63.7411ZM85.5558 14.7727C84.5709 14.7727 83.7068 14.5383 82.9634 14.0696C82.2248 13.6008 81.6471 12.945 81.2305 12.1022C80.8185 11.2594 80.6126 10.2746 80.6126 9.14768C80.6126 8.01132 80.8185 7.01937 81.2305 6.17183C81.6471 5.32429 82.2248 4.66615 82.9634 4.1974C83.7068 3.72865 84.5709 3.49427 85.5558 3.49427C86.5406 3.49427 87.4023 3.72865 88.141 4.1974C88.8844 4.66615 89.462 5.32429 89.8739 6.17183C90.2906 7.01937 90.4989 8.01132 90.4989 9.14768C90.4989 10.2746 90.2906 11.2594 89.8739 12.1022C89.462 12.945 88.8844 13.6008 88.141 14.0696C87.4023 14.5383 86.5406 14.7727 85.5558 14.7727ZM85.5558 13.267C86.3039 13.267 86.9194 13.0752 87.4023 12.6917C87.8853 12.3082 88.2428 11.8039 88.4748 11.1789C88.7068 10.5539 88.8228 9.87685 88.8228 9.14768C88.8228 8.41852 88.7068 7.73907 88.4748 7.10933C88.2428 6.4796 87.8853 5.9706 87.4023 5.58234C86.9194 5.19408 86.3039 4.99996 85.5558 4.99996C84.8076 4.99996 84.1921 5.19408 83.7092 5.58234C83.2262 5.9706 82.8687 6.4796 82.6367 7.10933C82.4047 7.73907 82.2887 8.41852 82.2887 9.14768C82.2887 9.87685 82.4047 10.5539 82.6367 11.1789C82.8687 11.8039 83.2262 12.3082 83.7092 12.6917C84.1921 13.0752 84.8076 13.267 85.5558 13.267Z" fill="white"/>
</svg>
